<mxfile host="app.diagrams.net" modified="2021-02-15T11:19:48.022Z" agent="5.0 (Windows NT 6.1; Win64; x64) AppleWebKit/537.36 (KHTML, like Gecko) Chrome/88.0.4324.150 Safari/537.36" etag="ulXqxGSAwD3wkf2Y1F3o" version="14.3.1" type="github">
  <diagram id="ASHdSk7WSt_pDOqpaIj1" name="Page-1">
    <mxGraphModel dx="1747" dy="868" grid="1" gridSize="10" guides="1" tooltips="1" connect="1" arrows="1" fold="1" page="1" pageScale="1" pageWidth="827" pageHeight="1169" math="0" shadow="0">
      <root>
        <mxCell id="0" />
        <mxCell id="1" parent="0" />
        <mxCell id="SApstHMaboT9P7HK5nDQ-1" value="" style="strokeWidth=1;shadow=0;dashed=0;align=center;html=1;shape=mxgraph.mockup.containers.browserWindow;rSize=0;strokeColor2=#008cff;strokeColor3=#c4c4c4;mainText=,;recursiveResize=0;rotation=0;" vertex="1" parent="1">
          <mxGeometry x="70" y="30" width="570" height="370" as="geometry" />
        </mxCell>
        <mxCell id="SApstHMaboT9P7HK5nDQ-2" value="Anselmi" style="strokeWidth=1;shadow=0;dashed=0;align=center;html=1;shape=mxgraph.mockup.containers.anchor;fontSize=17;fontColor=#666666;align=left;rotation=0;" vertex="1" parent="SApstHMaboT9P7HK5nDQ-1">
          <mxGeometry x="60" y="12" width="110" height="26" as="geometry" />
        </mxCell>
        <mxCell id="SApstHMaboT9P7HK5nDQ-3" value="https://www.marconicloud.it" style="strokeWidth=1;shadow=0;dashed=0;align=center;html=1;shape=mxgraph.mockup.containers.anchor;rSize=0;fontSize=17;fontColor=#666666;align=left;rotation=0;" vertex="1" parent="SApstHMaboT9P7HK5nDQ-1">
          <mxGeometry x="130" y="60" width="250" height="26" as="geometry" />
        </mxCell>
        <mxCell id="SApstHMaboT9P7HK5nDQ-5" value="&lt;b&gt;Portale IIS Marconi - Civitavecchia&lt;/b&gt;" style="text;html=1;align=center;verticalAlign=middle;whiteSpace=wrap;rounded=0;rotation=0;" vertex="1" parent="SApstHMaboT9P7HK5nDQ-1">
          <mxGeometry x="90" y="130" width="220" height="20" as="geometry" />
        </mxCell>
        <mxCell id="SApstHMaboT9P7HK5nDQ-18" value="" style="verticalLabelPosition=bottom;shadow=0;dashed=0;align=center;html=1;verticalAlign=top;strokeWidth=1;shape=mxgraph.mockup.graphics.simpleIcon;strokeColor=#999999;" vertex="1" parent="SApstHMaboT9P7HK5nDQ-1">
          <mxGeometry x="25" y="123.5" width="40" height="35" as="geometry" />
        </mxCell>
        <mxCell id="SApstHMaboT9P7HK5nDQ-19" value="&lt;b&gt;Sevizi Interni&lt;/b&gt;" style="text;html=1;strokeColor=none;fillColor=none;align=center;verticalAlign=middle;whiteSpace=wrap;rounded=0;" vertex="1" parent="SApstHMaboT9P7HK5nDQ-1">
          <mxGeometry x="20" y="180" width="110" height="20" as="geometry" />
        </mxCell>
        <mxCell id="SApstHMaboT9P7HK5nDQ-20" value="" style="verticalLabelPosition=bottom;shadow=0;dashed=0;align=center;html=1;verticalAlign=top;strokeWidth=1;shape=mxgraph.mockup.graphics.simpleIcon;strokeColor=#999999;" vertex="1" parent="SApstHMaboT9P7HK5nDQ-1">
          <mxGeometry x="30" y="210" width="50" height="50" as="geometry" />
        </mxCell>
        <mxCell id="SApstHMaboT9P7HK5nDQ-21" value="" style="verticalLabelPosition=bottom;shadow=0;dashed=0;align=center;html=1;verticalAlign=top;strokeWidth=1;shape=mxgraph.mockup.graphics.simpleIcon;strokeColor=#999999;" vertex="1" parent="SApstHMaboT9P7HK5nDQ-1">
          <mxGeometry x="100" y="210" width="50" height="50" as="geometry" />
        </mxCell>
        <mxCell id="SApstHMaboT9P7HK5nDQ-22" value="" style="verticalLabelPosition=bottom;shadow=0;dashed=0;align=center;html=1;verticalAlign=top;strokeWidth=1;shape=mxgraph.mockup.graphics.simpleIcon;strokeColor=#999999;" vertex="1" parent="SApstHMaboT9P7HK5nDQ-1">
          <mxGeometry x="170" y="210" width="50" height="50" as="geometry" />
        </mxCell>
        <mxCell id="SApstHMaboT9P7HK5nDQ-23" value="&lt;b&gt;Sevizi Esterni&lt;/b&gt;" style="text;html=1;strokeColor=none;fillColor=none;align=center;verticalAlign=middle;whiteSpace=wrap;rounded=0;" vertex="1" parent="SApstHMaboT9P7HK5nDQ-1">
          <mxGeometry x="30" y="280" width="90" height="20" as="geometry" />
        </mxCell>
        <mxCell id="SApstHMaboT9P7HK5nDQ-24" value="" style="verticalLabelPosition=bottom;shadow=0;dashed=0;align=center;html=1;verticalAlign=top;strokeWidth=1;shape=mxgraph.mockup.graphics.simpleIcon;strokeColor=#999999;" vertex="1" parent="SApstHMaboT9P7HK5nDQ-1">
          <mxGeometry x="30" y="310" width="50" height="50" as="geometry" />
        </mxCell>
        <mxCell id="SApstHMaboT9P7HK5nDQ-25" value="" style="verticalLabelPosition=bottom;shadow=0;dashed=0;align=center;html=1;verticalAlign=top;strokeWidth=1;shape=mxgraph.mockup.graphics.simpleIcon;strokeColor=#999999;" vertex="1" parent="SApstHMaboT9P7HK5nDQ-1">
          <mxGeometry x="100" y="310" width="50" height="50" as="geometry" />
        </mxCell>
        <mxCell id="SApstHMaboT9P7HK5nDQ-26" value="" style="verticalLabelPosition=bottom;shadow=0;dashed=0;align=center;html=1;verticalAlign=top;strokeWidth=1;shape=mxgraph.mockup.graphics.simpleIcon;strokeColor=#999999;" vertex="1" parent="SApstHMaboT9P7HK5nDQ-1">
          <mxGeometry x="170" y="310" width="50" height="50" as="geometry" />
        </mxCell>
        <mxCell id="SApstHMaboT9P7HK5nDQ-27" value="" style="verticalLabelPosition=bottom;shadow=0;dashed=0;align=center;html=1;verticalAlign=top;strokeWidth=1;shape=mxgraph.mockup.graphics.simpleIcon;strokeColor=#999999;" vertex="1" parent="SApstHMaboT9P7HK5nDQ-1">
          <mxGeometry x="240" y="310" width="50" height="50" as="geometry" />
        </mxCell>
        <mxCell id="SApstHMaboT9P7HK5nDQ-28" value="Search" style="strokeWidth=1;shadow=0;dashed=0;align=center;html=1;shape=mxgraph.mockup.forms.searchBox;strokeColor=#999999;mainText=;strokeColor2=#008cff;fontColor=#666666;fontSize=17;align=left;spacingLeft=3;" vertex="1" parent="SApstHMaboT9P7HK5nDQ-1">
          <mxGeometry x="340" y="122.5" width="110" height="25" as="geometry" />
        </mxCell>
        <mxCell id="SApstHMaboT9P7HK5nDQ-29" value="" style="pointerEvents=1;shadow=0;dashed=0;html=1;strokeColor=none;fillColor=#505050;labelPosition=center;verticalLabelPosition=bottom;verticalAlign=top;outlineConnect=0;align=center;shape=mxgraph.office.security.lock_protected;" vertex="1" parent="SApstHMaboT9P7HK5nDQ-1">
          <mxGeometry x="460" y="127.97999999999999" width="10" height="13.75" as="geometry" />
        </mxCell>
        <mxCell id="SApstHMaboT9P7HK5nDQ-30" value="Login&lt;br&gt;" style="text;html=1;strokeColor=none;fillColor=none;align=center;verticalAlign=middle;whiteSpace=wrap;rounded=0;" vertex="1" parent="SApstHMaboT9P7HK5nDQ-1">
          <mxGeometry x="480" y="127.98" width="30" height="12.5" as="geometry" />
        </mxCell>
        <mxCell id="SApstHMaboT9P7HK5nDQ-32" value="" style="shape=image;html=1;verticalAlign=top;verticalLabelPosition=bottom;labelBackgroundColor=#ffffff;imageAspect=0;aspect=fixed;image=https://cdn4.iconfinder.com/data/icons/wirecons-free-vector-icons/32/menu-alt-128.png" vertex="1" parent="SApstHMaboT9P7HK5nDQ-1">
          <mxGeometry x="520" y="127.98" width="16.87" height="16.87" as="geometry" />
        </mxCell>
        <mxCell id="SApstHMaboT9P7HK5nDQ-33" value="" style="verticalLabelPosition=bottom;shadow=0;dashed=0;align=center;html=1;verticalAlign=top;strokeWidth=1;shape=mxgraph.mockup.graphics.simpleIcon;strokeColor=#999999;" vertex="1" parent="SApstHMaboT9P7HK5nDQ-1">
          <mxGeometry x="550" y="127.66" width="14" height="12.82" as="geometry" />
        </mxCell>
        <mxCell id="SApstHMaboT9P7HK5nDQ-39" style="edgeStyle=orthogonalEdgeStyle;rounded=0;orthogonalLoop=1;jettySize=auto;html=1;exitX=0;exitY=0.5;exitDx=0;exitDy=0;exitPerimeter=0;entryX=0.714;entryY=0.573;entryDx=0;entryDy=0;entryPerimeter=0;" edge="1" parent="1" source="SApstHMaboT9P7HK5nDQ-36" target="SApstHMaboT9P7HK5nDQ-33">
          <mxGeometry relative="1" as="geometry" />
        </mxCell>
        <mxCell id="SApstHMaboT9P7HK5nDQ-36" value="" style="shape=note;whiteSpace=wrap;html=1;backgroundOutline=1;darkOpacity=0.05;fillColor=#fff2cc;strokeColor=#d6b656;size=22;" vertex="1" parent="1">
          <mxGeometry x="670" y="190" width="70" height="90" as="geometry" />
        </mxCell>
        <mxCell id="SApstHMaboT9P7HK5nDQ-37" value="Logo di Univention&lt;br&gt;" style="text;html=1;strokeColor=none;fillColor=none;align=center;verticalAlign=middle;whiteSpace=wrap;rounded=0;" vertex="1" parent="1">
          <mxGeometry x="685" y="230" width="40" height="20" as="geometry" />
        </mxCell>
        <mxCell id="SApstHMaboT9P7HK5nDQ-42" style="edgeStyle=orthogonalEdgeStyle;rounded=0;orthogonalLoop=1;jettySize=auto;html=1;exitX=0;exitY=0;exitDx=70;exitDy=51.5;exitPerimeter=0;" edge="1" parent="1" source="SApstHMaboT9P7HK5nDQ-40" target="SApstHMaboT9P7HK5nDQ-18">
          <mxGeometry relative="1" as="geometry" />
        </mxCell>
        <mxCell id="SApstHMaboT9P7HK5nDQ-40" value="" style="shape=note;whiteSpace=wrap;html=1;backgroundOutline=1;darkOpacity=0.05;size=23;fillColor=#fff2cc;strokeColor=#d6b656;" vertex="1" parent="1">
          <mxGeometry x="-40" y="80" width="70" height="80" as="geometry" />
        </mxCell>
        <mxCell id="SApstHMaboT9P7HK5nDQ-41" value="Logo del marconi&lt;br&gt;" style="text;html=1;strokeColor=none;fillColor=none;align=center;verticalAlign=middle;whiteSpace=wrap;rounded=0;" vertex="1" parent="1">
          <mxGeometry x="-25" y="120" width="40" height="20" as="geometry" />
        </mxCell>
      </root>
    </mxGraphModel>
  </diagram>
</mxfile>
